<?xml version="1.0" encoding="utf-8"?>
<!-- Generator: Adobe Illustrator 27.1.1, SVG Export Plug-In . SVG Version: 6.00 Build 0)  -->
<svg version="1.1" id="Layer_1" xmlns="http://www.w3.org/2000/svg" xmlns:xlink="http://www.w3.org/1999/xlink" x="0px" y="0px"
	 viewBox="0 0 40 40" style="enable-background:new 0 0 40 40;" xml:space="preserve">
<style type="text/css">
	.st0{fill:none;}
	.st1{fill:#FFFFFF;}
</style>
<rect x="0.1" y="0.9" class="st0" width="39.7" height="38.2"/>
<path class="st1" d="M9.2,13.3v25.8H0.6V13.3H9.2z M9.6,5.4L9.6,5.4c0,1.3-0.5,2.4-1.3,3.2l0,0c-0.5,0.5-1,0.8-1.6,1
	C6.1,9.8,5.5,9.8,4.9,9.8l0,0l0,0c-0.6,0-1.3,0-1.9-0.3C2.3,9.3,1.8,9,1.4,8.6l0,0c-0.5-0.5-0.8-1-1-1.4C0.3,6.5,0.1,6,0.1,5.4l0,0
	V5.2c0-1.1,0.5-2.2,1.3-3l0,0c1-0.8,2.2-1.3,3.5-1.3l0,0c0.6,0,1.3,0,1.9,0.3c0.6,0.2,1.1,0.5,1.6,1l0,0c0.5,0.3,0.8,1,1,1.4
	C9.6,4.1,9.6,4.7,9.6,5.4L9.6,5.4L9.6,5.4L9.6,5.4z M40,24.3v14.8h-8.6V25.2c0.2-1.6-0.3-3-1.1-4.3l0,0c-0.3-0.5-0.8-1-1.4-1.3
	c-0.6-0.3-1.3-0.3-1.9-0.3l0,0c-1,0-1.9,0.3-2.7,1l0,0c-0.8,0.6-1.3,1.3-1.6,2.2l0,0c-0.2,0.6-0.3,1.4-0.3,2.1l0,0v14.3h-8.4
	c0-6.8,0-12.6,0-16.9s0-6.8,0-7.6v-1.3h8.6V17l0,0c0.3-0.5,0.6-1,1.1-1.4l0,0c0.5-0.5,1-1,1.4-1.3l0,0c0.5-0.5,1.3-1,2.1-1.1l0,0
	c1-0.3,1.9-0.5,2.9-0.5h0.2l0,0c1.3,0,2.7,0.2,3.8,0.6c1.3,0.5,2.4,1.3,3.2,2.2l0,0C39,17.6,40,20.5,40,24.3L40,24.3z"/>
</svg>
