<?xml version="1.0" encoding="utf-8"?>
<!-- Generator: Adobe Illustrator 27.1.1, SVG Export Plug-In . SVG Version: 6.00 Build 0)  -->
<svg version="1.1" id="Layer_1" xmlns="http://www.w3.org/2000/svg" xmlns:xlink="http://www.w3.org/1999/xlink" x="0px" y="0px"
	 viewBox="0 0 40 40" style="enable-background:new 0 0 40 40;" xml:space="preserve">
<style type="text/css">
	.st0{fill:#FFFFFF;}
</style>
<path class="st0" d="M16.1,2L36.2,38l3.3-7.4c0.3-0.8,0.5-1.6,0.5-2.5c0-0.8-0.3-1.6-0.7-2.3L26.6,4.3c-0.5-0.7-1-1.3-1.8-1.6
	C24.2,2.2,23.2,2,22.4,2H16.1z M12.6,5.6L2.9,23.3h19.4L12.6,5.6z M0.3,28.2l3.6,7c0.3,0.8,1,1.5,1.8,2c0.8,0.5,1.6,0.7,2.6,0.7
	h22.4L25.3,28h-25V28.2z"/>
</svg>
